<?xml version="1.0" standalone="no"?>
<!DOCTYPE svg PUBLIC "-//W3C//DTD SVG 20010904//EN"
 "http://www.w3.org/TR/2001/REC-SVG-20010904/DTD/svg10.dtd">
<svg version="1.0" xmlns="http://www.w3.org/2000/svg"
 width="575.000000pt" height="434.000000pt" viewBox="0 0 575.000000 434.000000"
 preserveAspectRatio="xMidYMid meet">

<g transform="translate(0.000000,434.000000) scale(0.100000,-0.100000)"
fill="#000000" stroke="none">
<path d="M2135 3535 c-137 -31 -287 -97 -373 -162 -19 -14 -50 -51 -69 -82
-19 -31 -49 -76 -65 -99 -54 -78 -181 -402 -204 -520 -19 -100 -18 -328 2
-412 8 -36 24 -105 34 -155 54 -256 60 -278 95 -334 45 -75 188 -212 257 -247
29 -15 72 -40 96 -56 98 -68 249 -117 437 -143 61 -8 151 -22 200 -31 175 -31
452 -7 693 62 80 22 227 96 321 161 110 75 187 180 250 338 43 107 44 114 52
260 4 83 11 173 14 201 9 66 -11 242 -36 319 -27 79 -113 261 -144 301 -14 18
-52 73 -85 123 -34 50 -91 119 -127 153 -36 35 -99 98 -141 140 -83 84 -133
111 -312 165 -84 26 -89 26 -460 29 -295 3 -388 0 -435 -11z m860 -49 c133
-32 256 -80 275 -107 8 -12 42 -47 75 -78 130 -121 189 -187 255 -285 84 -122
156 -260 201 -381 31 -86 33 -96 33 -235 0 -240 -4 -363 -15 -405 -23 -88 -85
-225 -139 -305 -50 -75 -68 -92 -148 -147 -127 -84 -250 -135 -417 -174 -122
-27 -164 -32 -320 -36 -171 -5 -191 -3 -395 31 -253 42 -357 74 -489 153 -134
79 -151 91 -216 152 -104 98 -137 157 -160 281 -8 41 -30 149 -50 239 -63 292
-48 444 74 752 70 177 134 294 207 377 56 64 183 127 338 167 87 23 106 24
441 24 336 1 354 0 450 -23z"/>
<path d="M1852 2928 c6 -18 28 -21 28 -4 0 9 -7 16 -16 16 -9 0 -14 -5 -12
-12z"/>
<path d="M2367 2753 c-10 -18 32 -70 73 -90 46 -23 117 -29 180 -17 43 9 118
80 102 96 -9 9 -20 5 -45 -20 -75 -73 -213 -68 -267 8 -21 30 -35 37 -43 23z"/>
<path d="M3250 2705 c0 -8 7 -15 15 -15 8 0 15 7 15 15 0 8 -7 15 -15 15 -8 0
-15 -7 -15 -15z"/>
</g>
</svg>
